<?xml version="1.0" standalone="no"?>
<!DOCTYPE svg PUBLIC "-//W3C//DTD SVG 20010904//EN"
 "http://www.w3.org/TR/2001/REC-SVG-20010904/DTD/svg10.dtd">
<svg version="1.0" xmlns="http://www.w3.org/2000/svg"
 width="500.000000pt" height="500.000000pt" viewBox="0 0 500.000000 500.000000"
 preserveAspectRatio="xMidYMid meet">

<g transform="translate(0.000000,500.000000) scale(0.100000,-0.100000)"
fill="#000000" stroke="none">
<path d="M4194 3246 c-19 -8 -54 -44 -85 -86 -89 -119 -188 -183 -459 -300
-186 -79 -247 -116 -290 -177 -28 -39 -66 -151 -58 -175 2 -6 22 20 43 57 74
126 145 172 471 304 307 124 368 155 437 223 47 46 57 62 57 90 0 39 -7 51
-37 67 -27 14 -40 14 -79 -3z"/>
<path d="M3080 2858 c65 -45 65 -81 -1 -153 -74 -81 -246 -170 -454 -238 -341
-111 -703 -130 -796 -41 -36 34 -37 58 -2 109 l27 40 -41 -33 c-82 -64 -106
-140 -59 -187 41 -41 125 -60 271 -59 158 0 266 14 450 59 255 61 478 153 623
255 72 51 132 124 132 161 0 33 -49 78 -103 94 -71 21 -85 19 -47 -7z"/>
<path d="M3227 2624 c-83 -96 -280 -199 -547 -288 -334 -112 -767 -150 -903
-80 -16 9 -31 14 -33 12 -9 -10 77 -100 131 -137 110 -75 228 -110 390 -118
432 -21 879 223 985 537 12 34 20 75 18 90 l-3 28 -38 -44z"/>
<path d="M2667 1736 c-69 -26 -99 -70 -99 -147 0 -93 64 -150 168 -150 65 0
108 22 142 72 20 28 23 44 20 89 -4 61 -25 98 -70 125 -39 22 -115 28 -161 11z
m97 -112 c27 -26 18 -64 -17 -77 -29 -11 -57 10 -57 41 0 49 42 69 74 36z"/>
<path d="M3057 1736 c-101 -37 -135 -139 -78 -232 26 -42 77 -64 149 -64 70 0
117 26 145 80 23 44 18 121 -10 158 -44 59 -135 84 -206 58z m97 -112 c23 -23
20 -51 -8 -69 -45 -30 -91 16 -61 61 18 28 47 31 69 8z"/>
<path d="M3786 1740 c-59 -19 -87 -70 -67 -123 12 -30 36 -45 99 -61 47 -12
69 -36 33 -36 -12 0 -21 5 -21 10 0 6 -27 10 -60 10 -64 0 -69 -4 -45 -49 21
-41 63 -55 157 -52 55 2 100 44 100 95 0 50 -26 75 -93 90 -36 9 -55 18 -57
29 -4 21 26 23 34 2 7 -17 99 -22 109 -6 9 15 -16 59 -42 76 -29 20 -108 28
-147 15z"/>
<path d="M1060 1640 c40 -80 50 -110 50 -150 l0 -50 60 0 60 0 0 45 c0 34 12
69 50 145 28 55 50 102 50 105 0 3 -29 5 -65 5 l-65 0 -11 -46 c-13 -50 -20
-48 -39 9 l-12 37 -64 0 -64 0 50 -100z"/>
<path d="M1390 1590 l0 -150 61 0 61 0 -4 56 -3 55 22 -25 c30 -36 73 -35 95
2 l17 27 1 -57 0 -58 60 0 60 0 0 150 0 150 -49 0 c-47 0 -51 -2 -91 -50 -23
-27 -45 -50 -48 -49 -4 0 -24 22 -45 50 -36 47 -39 49 -87 49 l-50 0 0 -150z"/>
<path d="M1830 1685 l0 -55 40 0 40 0 0 -95 0 -95 60 0 60 0 0 95 0 95 40 0
40 0 0 55 0 55 -140 0 -140 0 0 -55z"/>
<path d="M2300 1590 l0 -150 60 0 60 0 0 35 c0 34 1 35 40 35 l40 0 0 50 0 50
-40 0 c-29 0 -40 4 -40 15 0 11 12 15 45 15 l45 0 0 50 0 50 -105 0 -105 0 0
-150z"/>
<path d="M3350 1590 l0 -150 86 0 c105 0 154 13 191 52 22 23 28 39 31 91 4
57 2 66 -24 96 -41 49 -79 61 -189 61 l-95 0 0 -150z m174 37 c12 -9 17 -23
14 -42 -3 -26 -8 -30 -35 -33 -33 -3 -33 -3 -33 42 0 38 3 46 18 46 10 0 26
-6 36 -13z"/>
</g>
</svg>
